<svg width="21" height="21" viewBox="0 0 21 21" fill="none" xmlns="http://www.w3.org/2000/svg">
<path d="M14.86 13.4759L15.9712 12.2259C16.1448 12.0305 16.4469 12.1673 16.4469 12.4485V18.1283C16.4469 19.1635 15.7003 20.0034 14.7802 20.0034H2.55769C1.63754 20.0034 0.890991 19.1635 0.890991 18.1283V4.37802C0.890991 3.34285 1.63754 2.50298 2.55769 2.50298H12.0544C12.301 2.50298 12.426 2.83893 12.2523 3.03815L11.1412 4.28818C11.0891 4.34677 11.0197 4.37802 10.9433 4.37802H2.55769V18.1283H14.7802V13.6946C14.7802 13.6126 14.808 13.5345 14.86 13.4759ZM20.2977 5.59289L11.1794 15.8509L8.04045 16.2416C7.13071 16.3548 6.35639 15.4915 6.45708 14.4603L6.80431 10.9289L15.9226 0.670913C16.7177 -0.223638 18.0025 -0.223638 18.7942 0.670913L20.2942 2.35845C21.0893 3.253 21.0893 4.70225 20.2977 5.59289ZM16.867 6.79995L14.8496 4.53037L8.3981 11.7922L8.14462 14.3431L10.412 14.0579L16.867 6.79995ZM19.1171 3.6866L17.617 1.99907C17.4747 1.83891 17.242 1.83891 17.1031 1.99907L16.0302 3.20612L18.0476 5.4757L19.1206 4.26865C19.2594 4.10458 19.2594 3.84676 19.1171 3.6866Z" fill="#929292"/>
</svg>
